<svg id="visual" viewBox="0 0 960 540" width="960" height="540" xmlns="http://www.w3.org/2000/svg" xmlns:xlink="http://www.w3.org/1999/xlink" version="1.1"><rect x="0" y="0" width="960" height="540" fill="#001220"></rect><defs><linearGradient id="grad1_0" x1="43.8%" y1="0%" x2="100%" y2="100%"><stop offset="14.444444444444446%" stop-color="#d1fe51" stop-opacity="1"></stop><stop offset="85.55555555555554%" stop-color="#d1fe51" stop-opacity="1"></stop></linearGradient></defs><defs><linearGradient id="grad1_1" x1="43.8%" y1="0%" x2="100%" y2="100%"><stop offset="14.444444444444446%" stop-color="#d1fe51" stop-opacity="1"></stop><stop offset="85.55555555555554%" stop-color="#77e168" stop-opacity="1"></stop></linearGradient></defs><defs><linearGradient id="grad1_2" x1="43.8%" y1="0%" x2="100%" y2="100%"><stop offset="14.444444444444446%" stop-color="#00bf7b" stop-opacity="1"></stop><stop offset="85.55555555555554%" stop-color="#77e168" stop-opacity="1"></stop></linearGradient></defs><defs><linearGradient id="grad1_3" x1="43.8%" y1="0%" x2="100%" y2="100%"><stop offset="14.444444444444446%" stop-color="#00bf7b" stop-opacity="1"></stop><stop offset="85.55555555555554%" stop-color="#009b83" stop-opacity="1"></stop></linearGradient></defs><defs><linearGradient id="grad1_4" x1="43.8%" y1="0%" x2="100%" y2="100%"><stop offset="14.444444444444446%" stop-color="#00767d" stop-opacity="1"></stop><stop offset="85.55555555555554%" stop-color="#009b83" stop-opacity="1"></stop></linearGradient></defs><defs><linearGradient id="grad1_5" x1="43.8%" y1="0%" x2="100%" y2="100%"><stop offset="14.444444444444446%" stop-color="#00767d" stop-opacity="1"></stop><stop offset="85.55555555555554%" stop-color="#005268" stop-opacity="1"></stop></linearGradient></defs><defs><linearGradient id="grad1_6" x1="43.8%" y1="0%" x2="100%" y2="100%"><stop offset="14.444444444444446%" stop-color="#003046" stop-opacity="1"></stop><stop offset="85.55555555555554%" stop-color="#005268" stop-opacity="1"></stop></linearGradient></defs><defs><linearGradient id="grad1_7" x1="43.8%" y1="0%" x2="100%" y2="100%"><stop offset="14.444444444444446%" stop-color="#003046" stop-opacity="1"></stop><stop offset="85.55555555555554%" stop-color="#001220" stop-opacity="1"></stop></linearGradient></defs><defs><linearGradient id="grad2_0" x1="0%" y1="0%" x2="56.3%" y2="100%"><stop offset="14.444444444444446%" stop-color="#d1fe51" stop-opacity="1"></stop><stop offset="85.55555555555554%" stop-color="#d1fe51" stop-opacity="1"></stop></linearGradient></defs><defs><linearGradient id="grad2_1" x1="0%" y1="0%" x2="56.3%" y2="100%"><stop offset="14.444444444444446%" stop-color="#77e168" stop-opacity="1"></stop><stop offset="85.55555555555554%" stop-color="#d1fe51" stop-opacity="1"></stop></linearGradient></defs><defs><linearGradient id="grad2_2" x1="0%" y1="0%" x2="56.3%" y2="100%"><stop offset="14.444444444444446%" stop-color="#77e168" stop-opacity="1"></stop><stop offset="85.55555555555554%" stop-color="#00bf7b" stop-opacity="1"></stop></linearGradient></defs><defs><linearGradient id="grad2_3" x1="0%" y1="0%" x2="56.3%" y2="100%"><stop offset="14.444444444444446%" stop-color="#009b83" stop-opacity="1"></stop><stop offset="85.55555555555554%" stop-color="#00bf7b" stop-opacity="1"></stop></linearGradient></defs><defs><linearGradient id="grad2_4" x1="0%" y1="0%" x2="56.3%" y2="100%"><stop offset="14.444444444444446%" stop-color="#009b83" stop-opacity="1"></stop><stop offset="85.55555555555554%" stop-color="#00767d" stop-opacity="1"></stop></linearGradient></defs><defs><linearGradient id="grad2_5" x1="0%" y1="0%" x2="56.3%" y2="100%"><stop offset="14.444444444444446%" stop-color="#005268" stop-opacity="1"></stop><stop offset="85.55555555555554%" stop-color="#00767d" stop-opacity="1"></stop></linearGradient></defs><defs><linearGradient id="grad2_6" x1="0%" y1="0%" x2="56.3%" y2="100%"><stop offset="14.444444444444446%" stop-color="#005268" stop-opacity="1"></stop><stop offset="85.55555555555554%" stop-color="#003046" stop-opacity="1"></stop></linearGradient></defs><defs><linearGradient id="grad2_7" x1="0%" y1="0%" x2="56.3%" y2="100%"><stop offset="14.444444444444446%" stop-color="#001220" stop-opacity="1"></stop><stop offset="85.55555555555554%" stop-color="#003046" stop-opacity="1"></stop></linearGradient></defs><g transform="translate(960, 0)"><path d="M0 540C-94.1 525.7 -188.2 511.4 -270 467.7C-351.8 423.9 -421.2 350.8 -464.2 268C-507.1 185.2 -523.6 92.6 -540 0L0 0Z" fill="#002133"></path><path d="M0 472.5C-82.3 460 -164.7 447.4 -236.2 409.2C-307.8 371 -368.6 307 -406.2 234.5C-443.7 162 -458.1 81 -472.5 0L0 0Z" fill="#004158"></path><path d="M0 405C-70.6 394.3 -141.2 383.5 -202.5 350.7C-263.8 318 -315.9 263.1 -348.1 201C-380.4 138.9 -392.7 69.4 -405 0L0 0Z" fill="#006474"></path><path d="M0 337.5C-58.8 328.6 -117.6 319.6 -168.7 292.3C-219.9 265 -263.3 219.3 -290.1 167.5C-317 115.7 -327.2 57.9 -337.5 0L0 0Z" fill="#008982"></path><path d="M0 270C-47.1 262.8 -94.1 255.7 -135 233.8C-175.9 212 -210.6 175.4 -232.1 134C-253.6 92.6 -261.8 46.3 -270 0L0 0Z" fill="#00ae81"></path><path d="M0 202.5C-35.3 197.1 -70.6 191.8 -101.2 175.4C-131.9 159 -158 131.6 -174.1 100.5C-190.2 69.4 -196.3 34.7 -202.5 0L0 0Z" fill="#46d173"></path><path d="M0 135C-23.5 131.4 -47.1 127.8 -67.5 116.9C-87.9 106 -105.3 87.7 -116 67C-126.8 46.3 -130.9 23.1 -135 0L0 0Z" fill="#a3f05d"></path><path d="M0 67.5C-11.8 65.7 -23.5 63.9 -33.7 58.5C-44 53 -52.7 43.9 -58 33.5C-63.4 23.1 -65.4 11.6 -67.5 0L0 0Z" fill="#d1fe51"></path></g><g transform="translate(0, 540)"><path d="M0 -540C96.3 -526.9 192.6 -513.9 270 -467.7C347.4 -421.4 405.9 -342 447.7 -258.5C489.6 -175 514.8 -87.5 540 0L0 0Z" fill="#002133"></path><path d="M0 -472.5C84.3 -461.1 168.5 -449.7 236.2 -409.2C304 -368.7 355.2 -299.2 391.8 -226.2C428.4 -153.1 450.4 -76.6 472.5 0L0 0Z" fill="#004158"></path><path d="M0 -405C72.2 -395.2 144.5 -385.4 202.5 -350.7C260.5 -316.1 304.4 -256.5 335.8 -193.9C367.2 -131.3 386.1 -65.6 405 0L0 0Z" fill="#006474"></path><path d="M0 -337.5C60.2 -329.3 120.4 -321.2 168.7 -292.3C217.1 -263.4 253.7 -213.7 279.8 -161.6C306 -109.4 321.7 -54.7 337.5 0L0 0Z" fill="#008982"></path><path d="M0 -270C48.2 -263.5 96.3 -256.9 135 -233.8C173.7 -210.7 202.9 -171 223.9 -129.3C244.8 -87.5 257.4 -43.8 270 0L0 0Z" fill="#00ae81"></path><path d="M0 -202.5C36.1 -197.6 72.2 -192.7 101.2 -175.4C130.3 -158 152.2 -128.2 167.9 -96.9C183.6 -65.6 193 -32.8 202.5 0L0 0Z" fill="#46d173"></path><path d="M0 -135C24.1 -131.7 48.2 -128.5 67.5 -116.9C86.8 -105.4 101.5 -85.5 111.9 -64.6C122.4 -43.8 128.7 -21.9 135 0L0 0Z" fill="#a3f05d"></path><path d="M0 -67.5C12 -65.9 24.1 -64.2 33.7 -58.5C43.4 -52.7 50.7 -42.7 56 -32.3C61.2 -21.9 64.3 -10.9 67.5 0L0 0Z" fill="#d1fe51"></path></g></svg>