<svg id="visual" viewBox="0 0 960 540" width="960" height="540" xmlns="http://www.w3.org/2000/svg" xmlns:xlink="http://www.w3.org/1999/xlink" version="1.1"><rect x="0" y="0" width="960" height="540" fill="#001220"></rect><path d="M0 193L192 190L384 144L576 134L768 165L960 191L960 541L768 541L576 541L384 541L192 541L0 541Z" fill="#d1fe51"></path><path d="M0 167L192 153L384 158L576 223L768 252L960 184L960 541L768 541L576 541L384 541L192 541L0 541Z" fill="#9ced65"></path><path d="M0 214L192 270L384 194L576 202L768 186L960 212L960 541L768 541L576 541L384 541L192 541L0 541Z" fill="#6bd976"></path><path d="M0 204L192 260L384 242L576 281L768 277L960 189L960 541L768 541L576 541L384 541L192 541L0 541Z" fill="#3ec382"></path><path d="M0 248L192 245L384 325L576 248L768 304L960 333L960 541L768 541L576 541L384 541L192 541L0 541Z" fill="#0eac87"></path><path d="M0 263L192 334L384 351L576 289L768 278L960 260L960 541L768 541L576 541L384 541L192 541L0 541Z" fill="#009586"></path><path d="M0 331L192 354L384 350L576 339L768 299L960 295L960 541L768 541L576 541L384 541L192 541L0 541Z" fill="#007d7d"></path><path d="M0 400L192 336L384 340L576 346L768 413L960 336L960 541L768 541L576 541L384 541L192 541L0 541Z" fill="#006670"></path><path d="M0 431L192 373L384 428L576 434L768 387L960 416L960 541L768 541L576 541L384 541L192 541L0 541Z" fill="#004f5f"></path><path d="M0 424L192 407L384 451L576 456L768 436L960 445L960 541L768 541L576 541L384 541L192 541L0 541Z" fill="#003a4b"></path><path d="M0 478L192 457L384 453L576 448L768 478L960 464L960 541L768 541L576 541L384 541L192 541L0 541Z" fill="#012536"></path><path d="M0 498L192 494L384 487L576 501L768 513L960 497L960 541L768 541L576 541L384 541L192 541L0 541Z" fill="#001220"></path></svg>