<svg id="visual" viewBox="0 0 960 540" width="960" height="540" xmlns="http://www.w3.org/2000/svg" xmlns:xlink="http://www.w3.org/1999/xlink" version="1.1"><path d="M0 50L14.5 50C29 50 58 50 87.2 45.5C116.3 41 145.7 32 174.8 30.2C204 28.3 233 33.7 262 36.3C291 39 320 39 349 39.8C378 40.7 407 42.3 436.2 42.3C465.3 42.3 494.7 40.7 523.8 38C553 35.3 582 31.7 611 31.7C640 31.7 669 35.3 698 39C727 42.7 756 46.3 785.2 45.3C814.3 44.3 843.7 38.7 872.8 36.8C902 35 931 37 945.5 38L960 39L960 0L945.5 0C931 0 902 0 872.8 0C843.7 0 814.3 0 785.2 0C756 0 727 0 698 0C669 0 640 0 611 0C582 0 553 0 523.8 0C494.7 0 465.3 0 436.2 0C407 0 378 0 349 0C320 0 291 0 262 0C233 0 204 0 174.8 0C145.7 0 116.3 0 87.2 0C58 0 29 0 14.5 0L0 0Z" fill="#d1fe51"></path><path d="M0 77L14.5 76C29 75 58 73 87.2 66.7C116.3 60.3 145.7 49.7 174.8 47.8C204 46 233 53 262 55.7C291 58.3 320 56.7 349 57.7C378 58.7 407 62.3 436.2 64.2C465.3 66 494.7 66 523.8 65C553 64 582 62 611 62.8C640 63.7 669 67.3 698 69.2C727 71 756 71 785.2 67.5C814.3 64 843.7 57 872.8 57C902 57 931 64 945.5 67.5L960 71L960 37L945.5 36C931 35 902 33 872.8 34.8C843.7 36.7 814.3 42.3 785.2 43.3C756 44.3 727 40.7 698 37C669 33.3 640 29.7 611 29.7C582 29.7 553 33.3 523.8 36C494.7 38.7 465.3 40.3 436.2 40.3C407 40.3 378 38.7 349 37.8C320 37 291 37 262 34.3C233 31.7 204 26.3 174.8 28.2C145.7 30 116.3 39 87.2 43.5C58 48 29 48 14.5 48L0 48Z" fill="#9ced65"></path><path d="M0 114L14.5 115C29 116 58 118 87.2 111.8C116.3 105.7 145.7 91.3 174.8 88.7C204 86 233 95 262 95C291 95 320 86 349 85C378 84 407 91 436.2 96.3C465.3 101.7 494.7 105.3 523.8 107.2C553 109 582 109 611 107.2C640 105.3 669 101.7 698 103.5C727 105.3 756 112.7 785.2 112.7C814.3 112.7 843.7 105.3 872.8 101.7C902 98 931 98 945.5 98L960 98L960 69L945.5 65.5C931 62 902 55 872.8 55C843.7 55 814.3 62 785.2 65.5C756 69 727 69 698 67.2C669 65.3 640 61.7 611 60.8C582 60 553 62 523.8 63C494.7 64 465.3 64 436.2 62.2C407 60.3 378 56.7 349 55.7C320 54.7 291 56.3 262 53.7C233 51 204 44 174.8 45.8C145.7 47.7 116.3 58.3 87.2 64.7C58 71 29 73 14.5 74L0 75Z" fill="#6bd976"></path><path d="M0 179L14.5 178.2C29 177.3 58 175.7 87.2 170.3C116.3 165 145.7 156 174.8 156.8C204 157.7 233 168.3 262 164.7C291 161 320 143 349 140.3C378 137.7 407 150.3 436.2 159.3C465.3 168.3 494.7 173.7 523.8 172.8C553 172 582 165 611 162.3C640 159.7 669 161.3 698 160.3C727 159.3 756 155.7 785.2 155.7C814.3 155.7 843.7 159.3 872.8 163C902 166.7 931 170.3 945.5 172.2L960 174L960 96L945.5 96C931 96 902 96 872.8 99.7C843.7 103.3 814.3 110.7 785.2 110.7C756 110.7 727 103.3 698 101.5C669 99.7 640 103.3 611 105.2C582 107 553 107 523.8 105.2C494.7 103.3 465.3 99.7 436.2 94.3C407 89 378 82 349 83C320 84 291 93 262 93C233 93 204 84 174.8 86.7C145.7 89.3 116.3 103.7 87.2 109.8C58 116 29 114 14.5 113L0 112Z" fill="#3ec382"></path><path d="M0 228L14.5 228C29 228 58 228 87.2 220.8C116.3 213.7 145.7 199.3 174.8 195.7C204 192 233 199 262 199C291 199 320 192 349 191.2C378 190.3 407 195.7 436.2 202.8C465.3 210 494.7 219 523.8 221.7C553 224.3 582 220.7 611 214.3C640 208 669 199 698 198.2C727 197.3 756 204.7 785.2 210C814.3 215.3 843.7 218.7 872.8 221.3C902 224 931 226 945.5 227L960 228L960 172L945.5 170.2C931 168.3 902 164.7 872.8 161C843.7 157.3 814.3 153.7 785.2 153.7C756 153.7 727 157.3 698 158.3C669 159.3 640 157.7 611 160.3C582 163 553 170 523.8 170.8C494.7 171.7 465.3 166.3 436.2 157.3C407 148.3 378 135.7 349 138.3C320 141 291 159 262 162.7C233 166.3 204 155.7 174.8 154.8C145.7 154 116.3 163 87.2 168.3C58 173.7 29 175.3 14.5 176.2L0 177Z" fill="#0eac87"></path><path d="M0 293L14.5 296.5C29 300 58 307 87.2 312.3C116.3 317.7 145.7 321.3 174.8 325C204 328.7 233 332.3 262 319.7C291 307 320 278 349 269C378 260 407 271 436.2 285.5C465.3 300 494.7 318 523.8 320.7C553 323.3 582 310.7 611 305.2C640 299.7 669 301.3 698 300.5C727 299.7 756 296.3 785.2 303.7C814.3 311 843.7 329 872.8 338.8C902 348.7 931 350.3 945.5 351.2L960 352L960 226L945.5 225C931 224 902 222 872.8 219.3C843.7 216.7 814.3 213.3 785.2 208C756 202.7 727 195.3 698 196.2C669 197 640 206 611 212.3C582 218.7 553 222.3 523.8 219.7C494.7 217 465.3 208 436.2 200.8C407 193.7 378 188.3 349 189.2C320 190 291 197 262 197C233 197 204 190 174.8 193.7C145.7 197.3 116.3 211.7 87.2 218.8C58 226 29 226 14.5 226L0 226Z" fill="#009586"></path><path d="M0 320L14.5 321.7C29 323.3 58 326.7 87.2 332.8C116.3 339 145.7 348 174.8 354.3C204 360.7 233 364.3 262 349.2C291 334 320 300 349 289.2C378 278.3 407 290.7 436.2 305.8C465.3 321 494.7 339 523.8 340.8C553 342.7 582 328.3 611 323C640 317.7 669 321.3 698 320.5C727 319.7 756 314.3 785.2 321.5C814.3 328.7 843.7 348.3 872.8 358.2C902 368 931 368 945.5 368L960 368L960 350L945.5 349.2C931 348.3 902 346.7 872.8 336.8C843.7 327 814.3 309 785.2 301.7C756 294.3 727 297.7 698 298.5C669 299.3 640 297.7 611 303.2C582 308.7 553 321.3 523.8 318.7C494.7 316 465.3 298 436.2 283.5C407 269 378 258 349 267C320 276 291 305 262 317.7C233 330.3 204 326.7 174.8 323C145.7 319.3 116.3 315.7 87.2 310.3C58 305 29 298 14.5 294.5L0 291Z" fill="#007d7d"></path><path d="M0 336L14.5 340.5C29 345 58 354 87.2 364.8C116.3 375.7 145.7 388.3 174.8 394.7C204 401 233 401 262 384.7C291 368.3 320 335.7 349 324.8C378 314 407 325 436.2 337.7C465.3 350.3 494.7 364.7 523.8 365.5C553 366.3 582 353.7 611 348.3C640 343 669 345 698 345C727 345 756 343 785.2 352C814.3 361 843.7 381 872.8 392.7C902 404.3 931 407.7 945.5 409.3L960 411L960 366L945.5 366C931 366 902 366 872.8 356.2C843.7 346.3 814.3 326.7 785.2 319.5C756 312.3 727 317.7 698 318.5C669 319.3 640 315.7 611 321C582 326.3 553 340.7 523.8 338.8C494.7 337 465.3 319 436.2 303.8C407 288.7 378 276.3 349 287.2C320 298 291 332 262 347.2C233 362.3 204 358.7 174.8 352.3C145.7 346 116.3 337 87.2 330.8C58 324.7 29 321.3 14.5 319.7L0 318Z" fill="#006670"></path><path d="M0 471L14.5 472.8C29 474.7 58 478.3 87.2 481C116.3 483.7 145.7 485.3 174.8 482.5C204 479.7 233 472.3 262 467C291 461.7 320 458.3 349 462C378 465.7 407 476.3 436.2 475.3C465.3 474.3 494.7 461.7 523.8 459.8C553 458 582 467 611 468C640 469 669 462 698 462C727 462 756 469 785.2 474.3C814.3 479.7 843.7 483.3 872.8 483.3C902 483.3 931 479.7 945.5 477.8L960 476L960 409L945.5 407.3C931 405.7 902 402.3 872.8 390.7C843.7 379 814.3 359 785.2 350C756 341 727 343 698 343C669 343 640 341 611 346.3C582 351.7 553 364.3 523.8 363.5C494.7 362.7 465.3 348.3 436.2 335.7C407 323 378 312 349 322.8C320 333.7 291 366.3 262 382.7C233 399 204 399 174.8 392.7C145.7 386.3 116.3 373.7 87.2 362.8C58 352 29 343 14.5 338.5L0 334Z" fill="#004f5f"></path><path d="M0 498L14.5 497C29 496 58 494 87.2 494.8C116.3 495.7 145.7 499.3 174.8 497.7C204 496 233 489 262 484.5C291 480 320 478 349 481.5C378 485 407 494 436.2 494C465.3 494 494.7 485 523.8 482.3C553 479.7 582 483.3 611 483.3C640 483.3 669 479.7 698 482.3C727 485 756 494 785.2 497.7C814.3 501.3 843.7 499.7 872.8 497C902 494.3 931 490.7 945.5 488.8L960 487L960 474L945.5 475.8C931 477.7 902 481.3 872.8 481.3C843.7 481.3 814.3 477.7 785.2 472.3C756 467 727 460 698 460C669 460 640 467 611 466C582 465 553 456 523.8 457.8C494.7 459.7 465.3 472.3 436.2 473.3C407 474.3 378 463.7 349 460C320 456.3 291 459.7 262 465C233 470.3 204 477.7 174.8 480.5C145.7 483.3 116.3 481.7 87.2 479C58 476.3 29 472.7 14.5 470.8L0 469Z" fill="#003a4b"></path><path d="M0 519L14.5 518.2C29 517.3 58 515.7 87.2 516.7C116.3 517.7 145.7 521.3 174.8 521.3C204 521.3 233 517.7 262 515.8C291 514 320 514 349 514.8C378 515.7 407 517.3 436.2 517.3C465.3 517.3 494.7 515.7 523.8 516.7C553 517.7 582 521.3 611 521.3C640 521.3 669 517.7 698 516.7C727 515.7 756 517.3 785.2 518.2C814.3 519 843.7 519 872.8 518.2C902 517.3 931 515.7 945.5 514.8L960 514L960 485L945.5 486.8C931 488.7 902 492.3 872.8 495C843.7 497.7 814.3 499.3 785.2 495.7C756 492 727 483 698 480.3C669 477.7 640 481.3 611 481.3C582 481.3 553 477.7 523.8 480.3C494.7 483 465.3 492 436.2 492C407 492 378 483 349 479.5C320 476 291 478 262 482.5C233 487 204 494 174.8 495.7C145.7 497.3 116.3 493.7 87.2 492.8C58 492 29 494 14.5 495L0 496Z" fill="#012536"></path><path d="M0 541L14.5 541C29 541 58 541 87.2 541C116.3 541 145.7 541 174.8 541C204 541 233 541 262 541C291 541 320 541 349 541C378 541 407 541 436.2 541C465.3 541 494.7 541 523.8 541C553 541 582 541 611 541C640 541 669 541 698 541C727 541 756 541 785.2 541C814.3 541 843.7 541 872.8 541C902 541 931 541 945.5 541L960 541L960 512L945.5 512.8C931 513.7 902 515.3 872.8 516.2C843.7 517 814.3 517 785.2 516.2C756 515.3 727 513.7 698 514.7C669 515.7 640 519.3 611 519.3C582 519.3 553 515.7 523.8 514.7C494.7 513.7 465.3 515.3 436.2 515.3C407 515.3 378 513.7 349 512.8C320 512 291 512 262 513.8C233 515.7 204 519.3 174.8 519.3C145.7 519.3 116.3 515.7 87.2 514.7C58 513.7 29 515.3 14.5 516.2L0 517Z" fill="#001220"></path></svg>