<svg id="visual" viewBox="0 0 960 540" width="960" height="540" xmlns="http://www.w3.org/2000/svg" xmlns:xlink="http://www.w3.org/1999/xlink" version="1.1"><rect x="0" y="0" width="960" height="540" fill="#001220"></rect><path d="M0 225L32 218.3C64 211.7 128 198.3 192 185.7C256 173 320 161 384 149.8C448 138.7 512 128.3 576 128C640 127.7 704 137.3 768 140.2C832 143 896 139 928 137L960 135L960 541L928 541C896 541 832 541 768 541C704 541 640 541 576 541C512 541 448 541 384 541C320 541 256 541 192 541C128 541 64 541 32 541L0 541Z" fill="#001220"></path><path d="M0 148L32 150C64 152 128 156 192 166C256 176 320 192 384 199.3C448 206.7 512 205.3 576 194.8C640 184.3 704 164.7 768 158.5C832 152.3 896 159.7 928 163.3L960 167L960 541L928 541C896 541 832 541 768 541C704 541 640 541 576 541C512 541 448 541 384 541C320 541 256 541 192 541C128 541 64 541 32 541L0 541Z" fill="#012536"></path><path d="M0 198L32 212.2C64 226.3 128 254.7 192 263.5C256 272.3 320 261.7 384 248C448 234.3 512 217.7 576 205.8C640 194 704 187 768 190.7C832 194.3 896 208.7 928 215.8L960 223L960 541L928 541C896 541 832 541 768 541C704 541 640 541 576 541C512 541 448 541 384 541C320 541 256 541 192 541C128 541 64 541 32 541L0 541Z" fill="#003a4b"></path><path d="M0 278L32 265C64 252 128 226 192 213.2C256 200.3 320 200.7 384 212.3C448 224 512 247 576 251.5C640 256 704 242 768 247.5C832 253 896 278 928 290.5L960 303L960 541L928 541C896 541 832 541 768 541C704 541 640 541 576 541C512 541 448 541 384 541C320 541 256 541 192 541C128 541 64 541 32 541L0 541Z" fill="#004f5f"></path><path d="M0 280L32 287.5C64 295 128 310 192 306.3C256 302.7 320 280.3 384 277.2C448 274 512 290 576 286.7C640 283.3 704 260.7 768 248.8C832 237 896 236 928 235.5L960 235L960 541L928 541C896 541 832 541 768 541C704 541 640 541 576 541C512 541 448 541 384 541C320 541 256 541 192 541C128 541 64 541 32 541L0 541Z" fill="#006670"></path><path d="M0 333L32 335.8C64 338.7 128 344.3 192 344C256 343.7 320 337.3 384 323.7C448 310 512 289 576 287.8C640 286.7 704 305.3 768 321C832 336.7 896 349.3 928 355.7L960 362L960 541L928 541C896 541 832 541 768 541C704 541 640 541 576 541C512 541 448 541 384 541C320 541 256 541 192 541C128 541 64 541 32 541L0 541Z" fill="#007d7d"></path><path d="M0 345L32 337C64 329 128 313 192 305.8C256 298.7 320 300.3 384 301.5C448 302.7 512 303.3 576 309.2C640 315 704 326 768 328.2C832 330.3 896 323.7 928 320.3L960 317L960 541L928 541C896 541 832 541 768 541C704 541 640 541 576 541C512 541 448 541 384 541C320 541 256 541 192 541C128 541 64 541 32 541L0 541Z" fill="#009586"></path><path d="M0 349L32 352.3C64 355.7 128 362.3 192 361.7C256 361 320 353 384 349.7C448 346.3 512 347.7 576 345.5C640 343.3 704 337.7 768 346.3C832 355 896 378 928 389.5L960 401L960 541L928 541C896 541 832 541 768 541C704 541 640 541 576 541C512 541 448 541 384 541C320 541 256 541 192 541C128 541 64 541 32 541L0 541Z" fill="#0eac87"></path><path d="M0 396L32 399.8C64 403.7 128 411.3 192 415.3C256 419.3 320 419.7 384 419C448 418.3 512 416.7 576 410.8C640 405 704 395 768 395.2C832 395.3 896 405.7 928 410.8L960 416L960 541L928 541C896 541 832 541 768 541C704 541 640 541 576 541C512 541 448 541 384 541C320 541 256 541 192 541C128 541 64 541 32 541L0 541Z" fill="#3ec382"></path><path d="M0 444L32 447.2C64 450.3 128 456.7 192 453.7C256 450.7 320 438.3 384 433.8C448 429.3 512 432.7 576 433C640 433.3 704 430.7 768 428.5C832 426.3 896 424.7 928 423.8L960 423L960 541L928 541C896 541 832 541 768 541C704 541 640 541 576 541C512 541 448 541 384 541C320 541 256 541 192 541C128 541 64 541 32 541L0 541Z" fill="#6bd976"></path><path d="M0 455L32 455.3C64 455.7 128 456.3 192 461.7C256 467 320 477 384 481.2C448 485.3 512 483.7 576 483.5C640 483.3 704 484.7 768 486C832 487.3 896 488.7 928 489.3L960 490L960 541L928 541C896 541 832 541 768 541C704 541 640 541 576 541C512 541 448 541 384 541C320 541 256 541 192 541C128 541 64 541 32 541L0 541Z" fill="#9ced65"></path><path d="M0 494L32 492.2C64 490.3 128 486.7 192 485.8C256 485 320 487 384 492.3C448 497.7 512 506.3 576 505.5C640 504.7 704 494.3 768 492.3C832 490.3 896 496.7 928 499.8L960 503L960 541L928 541C896 541 832 541 768 541C704 541 640 541 576 541C512 541 448 541 384 541C320 541 256 541 192 541C128 541 64 541 32 541L0 541Z" fill="#d1fe51"></path></svg>